<?xml version="1.0" standalone="no"?><!DOCTYPE svg PUBLIC "-//W3C//DTD SVG 1.1//EN" "http://www.w3.org/Graphics/SVG/1.1/DTD/svg11.dtd"><svg t="1717229317917" class="icon" viewBox="0 0 1059 1024" version="1.1" xmlns="http://www.w3.org/2000/svg" p-id="12317" xmlns:xlink="http://www.w3.org/1999/xlink" width="34.1279296875" height="33"><path d="M706.206897 900.413793H353.103448V300.137931c0-38.841379 31.77931-70.62069 70.62069-70.62069h211.862069c38.841379 0 70.62069 31.77931 70.62069 70.62069v600.275862z" fill="#1296db" p-id="12318" data-spm-anchor-id="a313x.search_index.0.i7.36093a81CbLdnx" class="selected"></path><path d="M759.172414 105.931034H406.068966c-10.593103 0-17.655172 7.062069-17.655173 17.655173s7.062069 17.655172 17.655173 17.655172h353.103448c30.013793 0 52.965517 22.951724 52.965517 52.965518v688.551724h-88.275862V300.137931c0-49.434483-38.841379-88.275862-88.275862-88.275862H423.724138c-49.434483 0-88.275862 38.841379-88.275862 88.275862v582.62069h-88.275862V194.206897c0-30.013793 22.951724-52.965517 52.965517-52.965518 10.593103 0 17.655172-7.062069 17.655172-17.655172s-7.062069-17.655172-17.655172-17.655173c-49.434483 0-88.275862 38.841379-88.275862 88.275863v706.206896c0 10.593103 7.062069 17.655172 17.655172 17.655173h600.275862c10.593103 0 17.655172-7.062069 17.655173-17.655173V194.206897c0-49.434483-38.841379-88.275862-88.275862-88.275863zM370.758621 882.758621V300.137931c0-30.013793 22.951724-52.965517 52.965517-52.965517h211.862069c30.013793 0 52.965517 22.951724 52.965517 52.965517v582.62069H370.758621z" fill="#222222" p-id="12319"></path><path d="M617.931034 476.689655c-10.593103 0-17.655172 7.062069-17.655172 17.655173v141.241379c0 10.593103 7.062069 17.655172 17.655172 17.655172s17.655172-7.062069 17.655173-17.655172v-141.241379c0-10.593103-7.062069-17.655172-17.655173-17.655173z" fill="#222222" p-id="12320"></path></svg>