<svg width="100%" height="100%" id="svg" viewBox="0 0 1440 500" xmlns="http://www.w3.org/2000/svg" class="transition duration-300 ease-in-out delay-150"><defs><linearGradient id="gradient" x1="41%" y1="1%" x2="59%" y2="99%"><stop offset="5%" stop-color="#0693e388"></stop><stop offset="95%" stop-color="#32ded488"></stop></linearGradient></defs><path d="M 0,500 C 0,500 0,166 0,166 C 103.42857142857142,165.28571428571428 206.85714285714283,164.57142857142858 328,166 C 449.14285714285717,167.42857142857142 588,171 729,174 C 870,177 1013.1428571428571,179.42857142857144 1132,178 C 1250.857142857143,176.57142857142856 1345.4285714285716,171.28571428571428 1440,166 C 1440,166 1440,500 1440,500 Z" stroke="none" stroke-width="0" fill="url(#gradient)" class="transition-all duration-300 ease-in-out delay-150 path-0"></path><defs><linearGradient id="gradient" x1="41%" y1="1%" x2="59%" y2="99%"><stop offset="5%" stop-color="#0693e3ff"></stop><stop offset="95%" stop-color="#32ded4ff"></stop></linearGradient></defs><path d="M 0,500 C 0,500 0,333 0,333 C 110.17857142857142,327.5357142857143 220.35714285714283,322.07142857142856 344,316 C 467.64285714285717,309.92857142857144 604.75,303.24999999999994 712,322 C 819.25,340.75000000000006 896.6428571428571,384.92857142857144 1013,391 C 1129.357142857143,397.07142857142856 1284.6785714285716,365.0357142857143 1440,333 C 1440,333 1440,500 1440,500 Z" stroke="none" stroke-width="0" fill="url(#gradient)" class="transition-all duration-300 ease-in-out delay-150 path-1"></path></svg>