<?xml version="1.0" standalone="no"?><!DOCTYPE svg PUBLIC "-//W3C//DTD SVG 1.1//EN" "http://www.w3.org/Graphics/SVG/1.1/DTD/svg11.dtd"><svg t="1717183044271" class="icon" viewBox="0 0 1024 1024" version="1.1" xmlns="http://www.w3.org/2000/svg" p-id="1564" data-spm-anchor-id="a313x.search_index.0.i5.35b13a81pEFwEo" xmlns:xlink="http://www.w3.org/1999/xlink" width="33" height="33"><path d="M441.864303 461.325838A168.157405 168.157405 0 0 0 381.392951 442.810811a48.155676 48.155676 0 0 1-3.70854 31.605621c-20.258595 43.727568-30.941405 98.304-66.421622 133.036973a39.548541 39.548541 0 0 1-6.503784 5.064649 35.507892 35.507892 0 0 1-38.054054 32.768 348.436757 348.436757 0 0 1-133.341405-31.771676 11.402378 11.402378 0 0 1-2.324757-1.46681A123.350486 123.350486 0 0 0 105.134357 741.708108c0 1.964973 2.020324 3.597838 2.767567 5.535135a39.714595 39.714595 0 0 1 29.696 1.162379c47.325405 17.850811 92.796541 41.126054 139.180973 61.273946A485.846486 485.846486 0 0 0 339.491978 830.27027a438.161297 438.161297 0 0 0 16.245622-61.606054 40.12973 40.12973 0 0 1 49.34573-29.50227 39.880649 39.880649 0 0 1 27.675675 32.768 47.740541 47.740541 0 0 1 52.583784-7.527784 195.39027 195.39027 0 0 0 4.953946-264.994594 177.871568 177.871568 0 0 0-48.432432-37.749622z" fill="#707070" p-id="1565" data-spm-anchor-id="a313x.search_index.0.i0.35b13a81pEFwEo" class="selected"></path><path d="M641.655005 1023.667892a20.28627 20.28627 0 0 1-17.933837-10.682811l-103.700757-195.916108-118.230487-60.886487-52.583783 92.132325a20.175568 20.175568 0 0 1-24.908109 8.690162l-242.272864-99.632432a20.618378 20.618378 0 0 1-11.955892-25.129514l38.109405-125.453838a19.981838 19.981838 0 0 1 24.548324-13.644108l152.216217 42.039351 76.883027-198.047135-29.474595-11.679135-94.650811 90.969946a19.954162 19.954162 0 0 1-27.952432 0l-91.32973-90.471784a20.784432 20.784432 0 0 1 0-28.561297l178.950919-197.050811a19.954162 19.954162 0 0 1 21.974486-5.258378l219.025298 83.912648 202.032432 68.967784 83.995676-108.876108a19.954162 19.954162 0 0 1 26.651676-4.760216l94.318702 60.443676a20.729081 20.729081 0 0 1 6.614487 27.924756l-139.872865 239.754379a20.369297 20.369297 0 0 1-23.579676 9.188324l-134.863567-44.004324-56.043244 111.007135 100.462703 45.969297a20.120216 20.120216 0 0 1 11.291676 13.837838l66.864432 271.221622a20.839784 20.839784 0 0 1-2.269405 16.411675 19.898811 19.898811 0 0 1-12.592433 9.354379L646.332195 1024z m-247.780324-314.949189a18.155243 18.155243 0 0 1 9.049946 2.297081l141.007568 73.229838a20.507676 20.507676 0 0 1 8.717837 8.690162l98.857514 186.534054 80.757622-20.037189-59.751784-240.778379-110.97946-50.840216a20.701405 20.701405 0 0 1-10.821189-11.90054 20.67373 20.67373 0 0 1 1.134703-16.411676l73.589621-145.740108a20.064865 20.064865 0 0 1 24.216217-10.184649l135.832216 44.281081 121.634594-208.563892-61.799783-40.323459-82.058379 105.721081a19.981838 19.981838 0 0 1-22.278919 6.725189l-216.119351-73.894054L318.237059 238.39827l-156.921081 172.281081 62.823784 62.380973 89.807568-86.375783a19.788108 19.788108 0 0 1 21.31027-4.262055l60.416 24.13319a20.646054 20.646054 0 0 1 11.319351 26.596324l-91.108324 234.496a19.954162 19.954162 0 0 1-24.077838 12.149622l-150.860108-41.513514-26.81773 88.340757 209.006703 85.794594 53.773838-93.765189a20.28627 20.28627 0 0 1 16.965189-9.85254z" fill="#707070" p-id="1566" data-spm-anchor-id="a313x.search_index.0.i1.35b13a81pEFwEo" class="selected"></path><path d="M622.503438 276.756757A138.378378 138.378378 0 1 1 761.04787 138.378378a138.544432 138.544432 0 0 1-138.544432 138.378379z m-2.767568-238.010811A96.864865 96.864865 0 1 0 716.766789 135.610811a97.003243 97.003243 0 0 0-96.864865-96.864865z" fill="#707070" p-id="1567" data-spm-anchor-id="a313x.search_index.0.i2.35b13a81pEFwEo" class="selected"></path></svg>