<?xml version="1.0" standalone="no"?><!DOCTYPE svg PUBLIC "-//W3C//DTD SVG 1.1//EN" "http://www.w3.org/Graphics/SVG/1.1/DTD/svg11.dtd"><svg t="1716471742122" class="icon" viewBox="0 0 1024 1024" version="1.1" xmlns="http://www.w3.org/2000/svg" p-id="18845" xmlns:xlink="http://www.w3.org/1999/xlink" width="33" height="33"><path d="M512 0a512 512 0 1 0 512 512A512 512 0 0 0 512 0z m0 921.6a409.6 409.6 0 1 1 409.6-409.6 409.6 409.6 0 0 1-409.6 409.6z" fill="#515151" p-id="18846"></path><path d="M653.824 466.944c-55.296 0-96.256 44.544-96.256 120.832s40.96 121.856 96.256 121.856 96.256-45.568 96.256-121.856-40.96-120.832-96.256-120.832z m0 192c-17.92 0-33.28-17.92-33.28-71.168s15.36-70.144 33.28-70.144 33.28 16.384 33.28 70.144-15.36 71.168-33.28 71.168zM588.8 314.368l-205.312 395.264h52.224l205.312-395.264H588.8zM466.944 434.688c0-76.288-40.96-120.32-96.768-120.32S273.92 358.4 273.92 434.688s40.448 121.856 96.256 121.856S466.944 512 466.944 434.688z m-96.768 71.68c-17.92 0-33.28-18.432-33.28-71.68s15.36-70.144 33.28-70.144 33.28 16.896 33.28 70.144-15.36 71.68-33.28 71.68z" fill="#515151" p-id="18847"></path></svg>