<?xml version="1.0" standalone="no"?><!DOCTYPE svg PUBLIC "-//W3C//DTD SVG 1.1//EN" "http://www.w3.org/Graphics/SVG/1.1/DTD/svg11.dtd"><svg t="1719945114545" class="icon" viewBox="0 0 1194 1024" version="1.1" xmlns="http://www.w3.org/2000/svg" p-id="6898" xmlns:xlink="http://www.w3.org/1999/xlink" width="233.203125" height="200"><path d="M1046.442667 94.890667H468.992A64.170667 64.170667 0 0 0 404.821333 30.72H148.224a64.170667 64.170667 0 0 0-64.170667 64.170667v192.512c0 35.498667 28.672 64.170667 64.170667 64.170666h898.304a64.170667 64.170667 0 0 0 64.170667-64.170666V159.061333a64.170667 64.170667 0 0 0-64.256-64.170666z" fill="#EE8B00" p-id="6899"></path><path d="M982.357333 159.061333H212.309333a64.170667 64.170667 0 0 0-64.170666 64.170667v64.170667c0 35.498667 28.757333 64.170667 64.170666 64.170666h769.962667a64.170667 64.170667 0 0 0 64.170667-64.170666v-64.170667a64.170667 64.170667 0 0 0-64.085334-64.170667z" fill="#FFFFFF" p-id="6900"></path><path d="M1046.442667 223.232H148.224a64.170667 64.170667 0 0 0-64.170667 64.170667v641.706666c0 35.413333 28.672 64.170667 64.170667 64.170667h898.304a64.170667 64.170667 0 0 0 64.170667-64.170667v-641.706666a64.170667 64.170667 0 0 0-64.256-64.170667z" fill="#FFCC66" p-id="6901"></path></svg>