<svg width="180.000000" height="180.000000" viewBox="0 0 180 180" fill="none" xmlns="http://www.w3.org/2000/svg" xmlns:xlink="http://www.w3.org/1999/xlink">
	<desc>
			Created with Pixso.
	</desc>
	<defs>
		<clipPath id="clip4_5">
			<rect id="gitee登录" width="180.000000" height="180.000000" fill="white" fill-opacity="0"/>
		</clipPath>
	</defs>
	<g clip-path="url(#clip4_5)">
		<path id="path" d="M90 7.62e-6C40.29 7.62e-6 0 40.29 0 90C0 139.7 40.29 180 90 180C139.7 180 180 139.7 180 90C180 40.29 139.7 7.62e-6 90 7.62e-6ZM90 175C43.13 175 5 136.87 5 90C5 43.13 43.13 5 90 5C136.87 5 175 43.13 175 90C175 136.87 136.87 175 90 175Z" fill="#8A8A8A" fill-opacity="1.000000" fill-rule="nonzero"/>
		<path id="path" d="M129.22 80.99L85.77 80.99C83.68 80.99 81.99 82.69 81.99 84.77L81.99 94.22C81.99 96.3 83.68 97.99 85.77 98L112.22 98C114.3 98 115.99 99.69 115.99 101.77L115.99 103.66C115.99 104.03 115.97 104.4 115.94 104.77C115.9 105.14 115.85 105.51 115.78 105.87C115.7 106.24 115.61 106.6 115.5 106.95C115.4 107.31 115.27 107.66 115.13 108C114.99 108.34 114.83 108.68 114.65 109C114.48 109.33 114.29 109.65 114.08 109.96C113.88 110.27 113.66 110.57 113.42 110.85C113.18 111.14 112.94 111.41 112.67 111.68C112.41 111.94 112.14 112.19 111.85 112.42C111.56 112.66 111.26 112.88 110.96 113.09C110.65 113.29 110.33 113.48 110 113.66C109.67 113.83 109.34 113.99 109 114.13C108.65 114.28 108.3 114.4 107.95 114.51C107.59 114.62 107.23 114.71 106.87 114.78C106.51 114.85 106.14 114.91 105.77 114.94C105.4 114.98 105.03 115 104.66 115L68.77 115C68.52 115 68.27 114.97 68.03 114.92C67.79 114.88 67.55 114.8 67.32 114.71C67.09 114.61 66.87 114.5 66.67 114.36C66.46 114.22 66.27 114.07 66.1 113.89C65.92 113.71 65.76 113.52 65.63 113.32C65.49 113.11 65.37 112.89 65.28 112.66C65.18 112.44 65.11 112.2 65.06 111.96C65.01 111.71 64.99 111.47 64.99 111.22L64.99 75.33C64.99 74.96 65.01 74.59 65.04 74.22C65.08 73.85 65.14 73.48 65.21 73.12C65.28 72.76 65.37 72.4 65.48 72.04C65.59 71.69 65.71 71.34 65.85 70.99C65.99 70.65 66.15 70.32 66.33 69.99C66.5 69.66 66.69 69.34 66.9 69.03C67.11 68.73 67.33 68.43 67.56 68.14C67.8 67.85 68.05 67.58 68.31 67.32C68.57 67.05 68.85 66.81 69.13 66.57C69.42 66.33 69.72 66.11 70.03 65.91C70.34 65.7 70.65 65.51 70.98 65.34C71.31 65.16 71.64 65 71.99 64.86C72.33 64.72 72.68 64.59 73.03 64.49C73.39 64.38 73.75 64.29 74.11 64.21C74.48 64.14 74.84 64.09 75.21 64.05C75.58 64.02 75.95 64 76.32 64L129.21 63.99C131.29 63.99 132.98 62.31 132.98 60.22L132.99 50.77C132.99 50.53 132.97 50.28 132.92 50.04C132.88 49.79 132.8 49.56 132.71 49.33C132.61 49.1 132.5 48.88 132.36 48.68C132.22 48.47 132.07 48.28 131.89 48.1C131.72 47.93 131.53 47.77 131.32 47.63C131.11 47.5 130.89 47.38 130.67 47.28C130.44 47.19 130.2 47.12 129.96 47.07C129.71 47.02 129.47 47 129.22 47L76.33 47C60.68 47 48 59.68 48 75.33L48 128.22C48 130.3 49.69 132 51.77 132L107.5 132C108.33 132 109.16 131.95 109.99 131.87C110.83 131.79 111.65 131.67 112.47 131.5C113.29 131.34 114.1 131.14 114.9 130.9C115.7 130.66 116.48 130.37 117.25 130.05C118.03 129.73 118.78 129.38 119.52 128.98C120.25 128.59 120.97 128.16 121.66 127.7C122.36 127.23 123.03 126.74 123.67 126.21C124.32 125.68 124.94 125.12 125.53 124.53C126.12 123.94 126.68 123.32 127.21 122.67C127.74 122.03 128.23 121.36 128.7 120.66C129.16 119.97 129.59 119.25 129.98 118.52C130.38 117.78 130.73 117.03 131.05 116.25C131.37 115.48 131.66 114.7 131.9 113.9C132.14 113.1 132.34 112.29 132.5 111.47C132.67 110.65 132.79 109.83 132.87 109C132.95 108.16 133 107.33 133 106.5L133 84.77C133 82.69 131.3 80.99 129.22 80.99Z" fill="#8A8A8A" fill-opacity="1.000000" fill-rule="nonzero"/>
	</g>
</svg>
