<svg width="180.000000" height="180.000000" viewBox="0 0 180 180" fill="none" xmlns="http://www.w3.org/2000/svg" xmlns:xlink="http://www.w3.org/1999/xlink">
	<desc>
			Created with Pixso.
	</desc>
	<defs>
		<clipPath id="clip5_21">
			<rect id="ID登录" width="180.000000" height="180.000000" fill="white" fill-opacity="0"/>
		</clipPath>
	</defs>
	<g clip-path="url(#clip5_21)">
		<path id="path" d="M46.77 46.33L56.77 46.33L56.77 133.33L46.77 133.33L46.77 46.33Z" fill="#8A8A8A" fill-opacity="1.000000" fill-rule="nonzero"/>
		<path id="path" d="M122.33 53.81C119.39 50.8 115.85 48.72 111.69 47.58C108.72 46.75 104.41 46.33 98.77 46.33L73.77 46.33L73.77 133.33L99.95 133.33C104.34 133.33 108.23 132.84 111.61 131.85C115 130.86 117.88 129.4 120.28 127.48C122.67 125.56 124.87 122.93 126.89 119.59C128.9 116.25 130.55 112.02 131.84 106.92C133.13 101.81 133.77 95.96 133.77 89.35C133.77 81.6 132.82 74.7 130.92 68.67C129.02 62.64 126.16 57.68 122.33 53.81ZM121.96 105.94C120.69 110.55 118.92 114.22 116.64 116.95C115.02 118.89 112.85 120.4 110.13 121.46C107.41 122.53 103.65 123.07 98.86 123.07L83.37 123.07L83.37 56.59L98.62 56.59C104.33 56.59 108.47 57.19 111.05 58.38C114.61 60.04 117.64 63.31 120.13 68.2C122.62 73.09 123.87 80.08 123.87 89.18C123.87 95.74 123.23 101.34 121.96 105.94Z" fill="#8A8A8A" fill-opacity="1.000000" fill-rule="nonzero"/>
		<path id="path" d="M89.77 0.33C40.06 0.33 -0.23 40.62 -0.23 90.33C-0.23 140.03 40.06 180.33 89.77 180.33C139.47 180.33 179.77 140.03 179.77 90.33C179.77 40.62 139.47 0.33 89.77 0.33ZM89.77 175.33C42.9 175.33 4.77 137.2 4.77 90.33C4.77 43.46 42.9 5.33 89.77 5.33C136.64 5.33 174.77 43.46 174.77 90.33C174.77 137.2 136.64 175.33 89.77 175.33Z" fill="#8A8A8A" fill-opacity="1.000000" fill-rule="nonzero"/>
	</g>
</svg>
