<svg width="180.000000" height="180.000000" viewBox="0 0 180 180" fill="none" xmlns="http://www.w3.org/2000/svg" xmlns:xlink="http://www.w3.org/1999/xlink">
	<desc>
			Created with Pixso.
	</desc>
	<defs>
		<clipPath id="clip4_4">
			<rect id="QQ登录" width="180.000000" height="180.000000" fill="white" fill-opacity="0"/>
		</clipPath>
	</defs>
	<rect id="QQ登录" width="180.000000" height="180.000000" fill="#FFFFFF" fill-opacity="0"/>
	<g clip-path="url(#clip4_4)">
		<path id="path" d="M135.58 102.45L135.28 100.85L135.03 100.02L134.8 99.14L134.48 98.3L134.16 97.37L133.79 96.49L133.39 95.59L132.67 94.12L132.04 92.82L131.41 91.66L130.85 90.58L130.22 89.59L129.75 88.68L128.77 87.33L127.52 85.53L127.24 85.09L127.14 84.9L127.14 84.75L127.35 84.14L127.64 83.6L127.89 82.53L128.03 81.98L128.03 81.41L128.1 80.95L128.1 80.49L128.03 79.96L127.94 79.53L127.76 78.66L127.52 77.81L127.31 77.02L126.97 76.26L126.59 75.63L126.29 75.03L125.96 74.47L125.43 73.63L125.24 73.33L125.18 73.08L124.94 71.45L124.78 70.39L124.6 69.06L124.33 67.7L123.9 66.13L123.65 65.25L123.46 64.51L123.19 63.64L122.88 62.72L122.58 61.87L122.19 60.96L121.39 59.18L120.92 58.35L120.35 57.39L119.82 56.56L119.29 55.63L118.54 54.76L117.9 53.93L117.13 53.06L116.34 52.28L115.54 51.52L114.6 50.74L114.1 50.45L113.64 50.06L112.62 49.37L111.44 48.63L110.24 47.96L109.01 47.35L107.65 46.79L106.38 46.26L105.06 45.8L103.61 45.42L102.29 45.09L100.88 44.79L99.54 44.48L98.1 44.33L96.69 44.17L95.29 44L93.84 44L92.44 44L91.08 44L89.66 44.07L88.32 44.25L86.99 44.43L85.63 44.64L84.3 44.89L83.03 45.18L81.75 45.58L80.58 45.97L79.4 46.34L78.21 46.9L77.09 47.35L76.1 47.89L75.07 48.49L74.12 49.13L73.18 49.84L72.4 50.51L71.19 51.6L70.18 52.62L69.22 53.6L68.33 54.6L67.51 55.63L66.78 56.63L66.07 57.63L65.74 58.08L65.44 58.62L64.78 59.56L64.25 60.51L63.79 61.4L63.38 62.35L62.98 63.21L62.65 64.02L62.35 64.89L62.04 65.68L61.63 67.13L61.33 68.52L61.16 69.68L61 70.68L61 71.45L61 72.08L61 72.63L60.71 72.93L60.44 73.33L60.24 73.7L60.06 74.09L59.84 74.94L59.59 75.72L59.51 76.43L59.45 76.94L59.45 77.49L58.89 78.28L58.49 79.06L58.18 79.82L57.96 80.49L57.79 81.14L57.62 81.75L57.62 82.26L57.62 82.83L57.62 83.3L57.72 83.68L57.85 84.37L58.03 84.9L57.72 85.13L56.83 85.77L55.66 86.79L54.94 87.4L54.24 87.99L53.75 88.47L53.35 88.89L52.5 89.76L51.69 90.64L51.05 91.4L50.29 92.5L49.56 93.48L48.85 94.58L48.24 95.59L47.74 96.67L47.2 97.67L46.82 98.66L46.4 99.68L46.1 100.68L45.8 101.71L45.53 102.6L45.38 103.56L45.22 104.45L45.08 105.32L45 107.01L45 108.57L45 109.28L45.08 109.97L45.3 111.14L45.38 111.66L45.53 112.18L45.71 112.68L45.88 113.03L46.15 113.68L46.36 113.82L46.49 114.09L46.65 114.16L46.75 114.16L46.82 114.16L47.52 114.09L48.24 113.92L48.85 113.68L49.48 113.29L50.06 112.93L50.58 112.45L51.15 111.96L51.63 111.44L52.08 110.86L52.5 110.33L52.89 109.9L53.13 109.4L53.6 108.57L53.75 108.24L53.84 108.03L53.88 107.81L53.99 107.62L54.07 107.58L54.24 107.5L54.34 107.5L54.38 107.58L54.46 107.58L54.54 107.62L54.8 108.74L55.09 109.64L55.48 110.59L55.87 111.44L56.19 112.29L56.7 113.03L57.07 113.82L57.48 114.54L57.96 115.15L58.32 115.75L59.28 116.86L60.13 117.85L60.94 118.62L61.74 119.31L62.43 119.85L63.46 120.72L63.88 120.91L64.02 121.1L64.02 121.2L63.92 121.28L63.88 121.28L63.67 121.35L62.9 121.4L62.18 121.49L61.57 121.57L60.94 121.71L60.39 121.87L59.84 122.04L59.36 122.28L58.97 122.51L58.49 122.66L58.18 122.9L57.85 123.09L57.51 123.36L57.07 123.89L56.9 124.13L56.7 124.35L56.42 124.9L56.26 125.36L56.08 125.82L56.04 126.23L56.04 126.75L56.04 126.98L55.96 127.36L55.96 127.74L55.87 128.12L55.87 128.46L55.96 128.82L56.04 129.14L56.26 129.78L56.42 130.08L56.61 130.37L56.83 130.67L57.07 130.93L57.38 131.23L57.62 131.47L58.32 131.97L59.03 132.39L59.84 132.77L60.71 133.1L61.63 133.47L62.65 133.7L63.67 134.02L64.78 134.24L65.88 134.4L67.01 134.56L68.18 134.73L70.49 134.95L72.88 135L75.07 135L76.1 135L77.09 135L78.13 134.95L79.01 134.86L79.86 134.79L80.67 134.73L81.95 134.48L82.87 134.24L83.76 134.02L85.38 133.37L86.12 133.1L86.82 132.77L87.98 132.14L89.03 131.64L89.8 131.17L90.37 130.67L91.25 130.77L91.94 130.83L93.29 130.93L93.92 130.93L94.46 130.93L94.87 131.01L95.29 131.17L95.96 131.4L96.69 131.64L98.1 132.06L99.54 132.56L100.94 132.95L102.35 133.22L103.8 133.58L105.29 133.78L106.71 133.93L108.13 134.12L109.46 134.24L110.88 134.32L112.24 134.32L113.57 134.32L114.83 134.32L116.09 134.17L117.34 134.12L118.54 133.93L119.64 133.7L120.74 133.47L121.8 133.22L122.24 133.1L122.73 132.95L123.65 132.6L124.47 132.24L125.24 131.86L125.96 131.47L126.59 131.01L126.84 130.77L127.14 130.43L127.52 129.98L127.94 129.42L128.1 129.14L128.17 128.91L128.34 128.62L128.41 128.29L128.41 127.98L128.49 127.67L128.41 127.21L128.34 126.82L128.17 126.36L128.03 125.98L127.76 125.52L127.45 125.1L127.14 124.74L126.73 124.43L125.88 123.73L124.94 123.05L123.98 122.51L122.98 121.95L120.67 120.87L120.12 120.55L119.97 120.4L119.87 120.31L120.98 119.24L121.46 118.71L121.86 118.22L122.63 117.16L123.36 116.06L123.98 115.09L124.57 114.16L125.35 112.29L125.96 110.74L126.36 109.64L126.59 109.28L126.73 108.98L126.97 108.8L127.07 108.8L127.14 108.85L127.73 109.97L128.26 111.05L128.63 111.66L129.02 112.18L129.4 112.83L129.89 113.47L130.3 113.92L130.55 114.16L130.8 114.37L131.02 114.54L131.24 114.69L131.71 114.91L131.96 114.99L132.12 114.99L132.34 114.99L132.59 114.91L132.9 114.76L133.24 114.62L133.53 114.37L133.79 114.09L134.09 113.74L134.33 113.47L134.59 113.03L134.8 112.68L135.03 112.18L135.16 111.76L135.5 110.74L135.73 109.6L135.89 108.35L136 107.62L136 107.01L136 106.36L136 105.56L135.83 104.1L135.58 102.45Z" fill="#8A8A8A" fill-opacity="1.000000" fill-rule="nonzero"/>
		<path id="path" d="M90 0C40.29 0 0 40.29 0 90C0 139.7 40.29 180 90 180C139.7 180 180 139.7 180 90C180 40.29 139.7 0 90 0ZM90 175C43.13 175 5 136.87 5 90C5 43.13 43.13 5 90 5C136.87 5 175 43.13 175 90C175 136.87 136.87 175 90 175Z" fill="#8A8A8A" fill-opacity="1.000000" fill-rule="nonzero"/>
	</g>
</svg>
