<svg width="180.000000" height="180.000000" viewBox="0 0 180 180" fill="none" xmlns="http://www.w3.org/2000/svg" xmlns:xlink="http://www.w3.org/1999/xlink">
	<desc>
			Created with Pixso.
	</desc>
	<defs>
		<clipPath id="clip4_9">
			<rect id="微信登录" width="180.000000" height="180.000000" fill="white" fill-opacity="0"/>
		</clipPath>
	</defs>
	<g clip-path="url(#clip4_9)">
		<path id="path" d="M90 0C40.29 0 0 40.29 0 90C0 139.7 40.29 180 90 180C139.7 180 180 139.7 180 90C180 40.29 139.7 0 90 0ZM90 175C43.13 175 5 136.87 5 90C5 43.13 43.13 5 90 5C136.87 5 175 43.13 175 90C175 136.87 136.87 175 90 175Z" fill="#8A8A8A" fill-opacity="1.000000" fill-rule="nonzero"/>
		<path id="path" d="M109.55 72.23C110.82 72.23 112.07 72.32 113.31 72.46C109.93 56.7 93.09 45 73.86 45C52.36 45 34.75 59.65 34.75 78.25C34.75 88.99 40.61 97.81 50.4 104.65L46.49 116.42L60.16 109.56C65.05 110.53 68.98 111.53 73.86 111.53C75.08 111.53 76.3 111.47 77.51 111.37C76.74 108.76 76.3 106.02 76.3 103.18C76.3 86.09 90.97 72.23 109.55 72.23ZM88.52 61.62C91.47 61.62 93.42 63.56 93.42 66.5C93.42 69.43 91.47 71.4 88.52 71.4C85.59 71.4 82.65 69.43 82.65 66.5C82.65 63.56 85.59 61.62 88.52 61.62ZM61.15 71.4C58.22 71.4 55.27 69.43 55.27 66.5C55.27 63.56 58.22 61.62 61.15 61.62C64.08 61.62 66.04 63.56 66.04 66.5C66.04 69.44 64.08 71.4 61.15 71.4Z" fill="#8A8A8A" fill-opacity="1.000000" fill-rule="nonzero"/>
		<path id="path" d="M112.02 74.33C93.42 74.33 78.76 87.07 78.76 102.71C78.76 118.37 93.42 131.08 112.02 131.08C115.92 131.08 119.85 130.1 123.76 129.12L134.48 135L131.54 125.22C139.39 119.33 145.24 111.53 145.24 102.71C145.24 87.07 129.59 74.33 112.02 74.33ZM101.24 97.81C99.29 97.81 97.33 95.88 97.33 93.9C97.33 91.95 99.29 89.99 101.24 89.99C104.2 89.99 106.13 91.95 106.13 93.9C106.13 95.88 104.2 97.81 101.24 97.81ZM122.75 97.81C120.82 97.81 118.86 95.88 118.86 93.9C118.86 91.95 120.81 89.99 122.75 89.99C125.68 89.99 127.64 91.95 127.64 93.9C127.64 95.88 125.68 97.81 122.75 97.81Z" fill="#8A8A8A" fill-opacity="1.000000" fill-rule="nonzero"/>
	</g>
</svg>
