<svg width="180.000000" height="180.000000" viewBox="0 0 180 180" fill="none" xmlns="http://www.w3.org/2000/svg" xmlns:xlink="http://www.w3.org/1999/xlink">
	<desc>
			Created with Pixso.
	</desc>
	<defs>
		<clipPath id="clip5_26">
			<rect id="微博登录" width="180.000000" height="180.000000" fill="white" fill-opacity="0"/>
		</clipPath>
	</defs>
	<g clip-path="url(#clip5_26)">
		<path id="path" d="M90 0C40.29 0 0 40.29 0 90C0 139.7 40.29 180 90 180C139.7 180 180 139.7 180 90C180 40.29 139.7 0 90 0ZM90 175C43.13 175 5 136.87 5 90C5 43.13 43.13 5 90 5C136.87 5 175 43.13 175 90C175 136.87 136.87 175 90 175Z" fill="#8A8A8A" fill-opacity="1.000000" fill-rule="nonzero"/>
		<path id="path" d="M112.58 88.12C109.03 87.26 110.76 84.87 110.76 84.87C110.76 84.87 114.23 77.7 110.07 72.48C104.91 66.03 92.38 73.3 92.38 73.3C87.59 75.16 88.86 72.45 89.54 67.85C89.54 62.41 88.05 53.22 75.31 58.65C62.57 64.11 51.64 83.24 51.64 83.24C44.03 95.95 45.04 105.77 45.04 105.77C46.94 127.46 65.34 133.41 79.64 134.82C94.7 136.3 115.02 128.32 121.18 111.93C127.34 95.51 116.14 89.01 112.58 88.12ZM80.76 128.71C65.81 129.58 53.73 120.19 53.73 107.7C53.73 95.2 65.81 85.17 80.76 84.31C95.71 83.45 107.82 91.16 107.82 103.64C107.82 116.13 95.71 127.85 80.76 128.71Z" fill="#8A8A8A" fill-opacity="1.000000" fill-rule="nonzero"/>
		<path id="path" d="M78.1 93.18C63.35 95.35 65.05 112.73 65.05 112.73C65.05 112.73 64.91 118.24 69.01 121.04C77.64 126.93 86.52 123.37 91.01 116.07C95.5 108.77 92.86 91.02 78.1 93.18ZM74.38 117.58C71.63 117.98 69.41 115.98 69.41 113.08C69.41 110.2 71.38 107.17 74.13 106.81C77.3 106.43 79.35 108.73 79.35 111.63C79.35 114.51 77.12 117.18 74.38 117.58ZM83.07 108.25C82.14 109.13 80.99 109.01 80.5 107.96C79.98 106.93 80.18 105.29 81.12 104.42C82.21 103.4 83.35 103.69 83.84 104.72C84.33 105.77 83.98 107.35 83.07 108.25Z" fill="#8A8A8A" fill-opacity="1.000000" fill-rule="nonzero"/>
		<path id="path" d="M120.42 80C121.62 80 122.64 78.89 122.81 77.44C122.84 77.33 122.84 77.24 122.84 77.12C124.66 56.71 109.43 60.23 109.43 60.23C108.08 60.23 107 61.59 107 63.29C107 64.96 108.08 66.33 109.43 66.33C120.37 63.32 117.96 76.96 117.96 76.96C117.96 78.64 119.06 80 120.42 80Z" fill="#8A8A8A" fill-opacity="1.000000" fill-rule="nonzero"/>
		<path id="path" d="M118.11 44.73C112.88 43.18 107.5 44.51 105.99 44.88C105.87 44.89 105.76 45.03 105.65 45.06C105.6 45.07 105.57 45.14 105.57 45.14C104.08 45.67 103 47.41 103 49.46C103 51.91 104.57 53.92 106.53 53.92C106.53 53.92 108.43 53.6 109.72 52.96C111 52.31 121.85 52.47 127.23 63.89C130.17 72.22 128.52 77.8 128.32 78.69C128.32 78.69 127.62 80.86 127.62 82.99C127.62 85.45 129.19 87 131.14 87C132.77 87 134.13 86.71 134.53 83.24L134.55 83.24C140.34 58.92 127.48 47.49 118.11 44.73Z" fill="#8A8A8A" fill-opacity="1.000000" fill-rule="nonzero"/>
	</g>
</svg>
