<svg width="180.000000" height="180.000000" viewBox="0 0 180 180" fill="none" xmlns="http://www.w3.org/2000/svg" xmlns:xlink="http://www.w3.org/1999/xlink">
	<desc>
			Created with Pixso.
	</desc>
	<defs>
		<clipPath id="clip5_17">
			<rect id="验证码登录" width="180.000000" height="180.000000" fill="white" fill-opacity="0"/>
		</clipPath>
	</defs>
	<g clip-path="url(#clip5_17)">
		<path id="path" d="M90 0C40.29 0 0 40.29 0 90C0 139.7 40.29 180 90 180C139.7 180 180 139.7 180 90C180 40.29 139.7 0 90 0ZM90 174.37C43.39 174.37 5.62 136.59 5.62 90C5.62 43.39 43.39 5.62 90 5.62C136.59 5.62 174.37 43.39 174.37 90C174.37 136.59 136.59 174.37 90 174.37Z" fill="#8A8A8A" fill-opacity="1.000000" fill-rule="nonzero"/>
		<path id="path" d="M141.78 55.08C140.69 53.98 139.25 53.43 137.81 53.43L42.18 53.43C40.74 53.43 39.3 53.98 38.21 55.08C37.11 56.18 36.56 57.62 36.56 59.06L36.56 120.93C36.56 122.37 37.11 123.81 38.21 124.91C39.3 126.01 40.74 126.56 42.18 126.56L137.81 126.56C139.25 126.56 140.69 126.01 141.78 124.91C142.88 123.81 143.43 122.37 143.43 120.93L143.43 59.06C143.43 57.62 142.88 56.18 141.78 55.08ZM137.81 118.12C137.81 118.84 137.53 119.56 136.98 120.11C136.44 120.66 135.72 120.93 135 120.93L45 120.93C44.28 120.93 43.56 120.66 43.01 120.11C42.46 119.56 42.18 118.84 42.18 118.12L42.18 61.87C42.18 61.15 42.46 60.43 43.01 59.88C43.56 59.33 44.28 59.06 45 59.06L135 59.06C135.72 59.06 136.44 59.33 136.98 59.88C137.53 60.43 137.81 61.15 137.81 61.87L137.81 118.12Z" fill="#8A8A8A" fill-opacity="1.000000" fill-rule="nonzero"/>
		<path id="path" d="M107.38 86.66L131 69.78C132.27 68.88 132.56 67.13 131.66 65.86C130.76 64.6 129 64.3 127.73 65.21L91.63 91C91.17 91.33 90.6 91.52 89.99 91.52C89.38 91.52 88.82 91.33 88.36 91L52.25 65.21C50.99 64.3 49.23 64.6 48.33 65.86C47.43 67.13 47.72 68.88 48.98 69.78L72.61 86.66L48.61 111.11C47.52 112.23 47.54 114 48.65 115.09C49.76 116.18 51.53 116.16 52.62 115.05L77.24 89.97L86.72 96.74C87.65 97.39 88.77 97.78 90 97.78C91.22 97.78 92.34 97.39 93.26 96.74L102.74 89.96L127.36 115.05C128.45 116.16 130.23 116.17 131.34 115.09C132.45 114 132.46 112.22 131.38 111.11L107.38 86.66Z" fill="#8A8A8A" fill-opacity="1.000000" fill-rule="nonzero"/>
	</g>
</svg>
